<svg width="20" height="20" viewBox="0 0 20 20" fill="none" xmlns="http://www.w3.org/2000/svg">
<path d="M11.5084 12.3278L10.984 12.8522C10.844 12.9924 10.6352 13.0385 10.4491 12.9703C9.92762 12.7786 9.27522 12.2917 8.49192 11.5083C7.70933 10.7257 7.22181 10.0732 7.03076 9.551C6.96241 9.36502 7.00824 9.15626 7.14822 9.01603L7.67325 8.49166C8.64052 7.52431 8.72896 6.00076 7.87632 4.98954L7.26072 4.25783C6.55809 3.42211 5.29222 3.3379 4.4325 4.06889C4.11277 4.34445 3.8724 4.70038 3.73624 5.09993C3.67739 5.27385 3.63939 5.45415 3.62302 5.63703C3.30815 7.97437 4.43533 10.4278 7.00387 12.9965C9.57241 15.5653 12.0249 16.6918 14.3628 16.3769C14.9701 16.319 15.5318 16.029 15.9308 15.5674C16.6624 14.7083 16.5775 13.4416 15.7426 12.7389L15.0109 12.1226C13.9984 11.2713 12.4756 11.3604 11.5084 12.3278ZM9.50212 10.4982C9.87627 10.8724 10.2026 11.1562 10.4663 11.3495C11.983 9.83278 14.3429 9.69454 15.9313 11.03L16.6624 11.6459C18.1119 12.8658 18.2569 15.0394 17.0115 16.5016C16.3721 17.2414 15.4719 17.7061 14.5535 17.7927C11.7091 18.1758 8.84868 16.8619 5.99368 14.0066C3.13861 11.1513 1.82414 8.29006 2.20014 5.50972C2.22657 5.21429 2.28796 4.92303 2.38403 4.6391C2.60225 3.99879 2.98746 3.42836 3.50712 2.98055C4.96231 1.74324 7.13484 1.88819 8.35387 3.33814L8.96848 4.06866C10.3057 5.65461 10.1687 8.01637 8.68276 9.50245C8.84414 9.79774 9.12781 10.1239 9.50212 10.4982Z" fill="#333333"/>
</svg>
