<?xml version="1.0" standalone="no"?>
<!DOCTYPE svg PUBLIC "-//W3C//DTD SVG 20010904//EN"
 "http://www.w3.org/TR/2001/REC-SVG-20010904/DTD/svg10.dtd">
<svg version="1.0" xmlns="http://www.w3.org/2000/svg"
 width="52.000000pt" height="52.000000pt" viewBox="0 0 52.000000 52.000000"
 preserveAspectRatio="xMidYMid meet">

<g transform="translate(0.000000,52.000000) scale(0.100000,-0.100000)"
fill="#000000" stroke="none">
<path d="M51 506 c-45 -25 -50 -49 -51 -244 0 -200 6 -228 55 -250 36 -16 374
-16 410 0 49 22 55 51 55 248 0 197 -6 226 -55 248 -38 17 -382 16 -414 -2z
m158 -302 c-14 -17 -35 -18 -44 -3 -4 6 2 13 14 16 18 4 21 13 21 52 0 69 14
73 18 6 2 -33 -2 -63 -9 -71z m119 109 c2 -9 -7 -13 -25 -13 l-28 -1 34 -28
c26 -21 32 -32 27 -49 -8 -23 -47 -39 -65 -27 -19 11 -12 25 14 25 14 0 25 4
25 9 0 5 -11 16 -25 25 -14 9 -25 25 -25 36 0 33 57 53 68 23z"/>
</g>
</svg>
