<svg width="20" height="20" viewBox="0 0 20 20" fill="none" xmlns="http://www.w3.org/2000/svg">
<path d="M-7.86805e-07 2C-8.35087e-07 0.89543 0.89543 -3.91405e-08 2 -8.74228e-08L18 -7.86805e-07C19.1046 -8.35087e-07 20 0.895429 20 2C20 2.90551 19.6403 3.77392 19 4.41421L14 9.41421L14 15.5417C14 17.8087 9.5 19.5 8.45833 20C7.10063 20 6 18.8994 6 17.5417L6 9.41421L0.999999 4.41421C0.35971 3.77392 -7.47224e-07 2.90551 -7.86805e-07 2ZM2 2C2 2.37507 2.149 2.73478 2.41421 3L7.70711 8.29289C7.89464 8.48043 8 8.73478 8 9L8 17.5417C8 17.7948 8.2052 18 8.45833 18C9.08614 17.5928 12 16.3333 12 15.5417L12 9C12 8.73478 12.1054 8.48043 12.2929 8.29289L17.5858 3C17.851 2.73478 18 2.37507 18 2L2 2Z" fill="white"/>
</svg>
