<svg width="20" height="20" viewBox="0 0 20 20" fill="none" xmlns="http://www.w3.org/2000/svg">
<path d="M16.4286 8.582C16.4286 5.02604 13.5507 2.14282 9.99998 2.14282C6.44928 2.14282 3.57141 5.02604 3.57141 8.582C3.57141 11.1161 5.12797 14.1748 8.20024 17.8073C9.04091 18.8013 10.5282 18.9255 11.5222 18.0848C11.6222 18.0002 11.7151 17.9074 11.7997 17.8073C14.872 14.1748 16.4286 11.1161 16.4286 8.582ZM10.5996 16.9941C10.2081 17.3253 9.62217 17.2763 9.29099 16.8848C6.4167 13.4864 4.99998 10.7024 4.99998 8.582C4.99998 5.81442 7.23886 3.57139 9.99998 3.57139C12.7611 3.57139 15 5.81442 15 8.582C15 10.7024 13.5833 13.4864 10.709 16.8848C10.6756 16.9242 10.6391 16.9607 10.5996 16.9941ZM7.14284 8.57139C7.14284 6.99384 8.42243 5.71425 9.99998 5.71425C11.5775 5.71425 12.8571 6.99384 12.8571 8.57139C12.8571 10.1489 11.5775 11.4285 9.99998 11.4285C8.42243 11.4285 7.14284 10.1489 7.14284 8.57139ZM8.57141 8.57139C8.57141 9.35997 9.21141 9.99997 9.99998 9.99997C10.7886 9.99997 11.4286 9.35997 11.4286 8.57139C11.4286 7.78282 10.7886 7.14282 9.99998 7.14282C9.21141 7.14282 8.57141 7.78282 8.57141 8.57139Z" fill="#333333"/>
</svg>
