<svg width="20" height="20" viewBox="0 0 20 20" fill="none" xmlns="http://www.w3.org/2000/svg">
<path d="M9.28566 3.21423C12.6388 3.21423 15.3571 5.9325 15.3571 9.28566C15.3571 10.7049 14.8701 12.0105 14.0541 13.0443L17.2907 16.2806C17.5697 16.5595 17.5697 17.0118 17.2907 17.2907C17.0118 17.5697 16.5595 17.5697 16.2806 17.2907L13.0443 14.0541C12.0105 14.8701 10.7049 15.3571 9.28566 15.3571C5.9325 15.3571 3.21423 12.6388 3.21423 9.28566C3.21423 5.9325 5.9325 3.21423 9.28566 3.21423ZM9.28566 4.6428C6.72148 4.6428 4.6428 6.72148 4.6428 9.28566C4.6428 11.8498 6.72148 13.9285 9.28566 13.9285C11.8498 13.9285 13.9285 11.8498 13.9285 9.28566C13.9285 6.72148 11.8498 4.6428 9.28566 4.6428Z" fill="#C7081B"/>
</svg>
