<svg width="256" height="56" viewBox="0 0 256 56" fill="none" xmlns="http://www.w3.org/2000/svg">
<g clip-path="url(#clip0_1_1051)">
<path fill-rule="evenodd" clip-rule="evenodd" d="M205.648 55.8961V47.9715L197.43 55.3743V46.9931L199.615 45.0365V50.1565L205.844 44.4821H208.061V55.8961H205.648Z" fill="#232E30"/>
<path fill-rule="evenodd" clip-rule="evenodd" d="M192.897 55.8961V47.4497L184.124 55.3743V52.1784L192.636 44.4821H195.31V55.8961H192.897Z" fill="#232E30"/>
<path fill-rule="evenodd" clip-rule="evenodd" d="M179.559 55.8961V54.2329H174.374L176.722 52.0805H179.559V47.4823L170.786 55.3743V52.1784L179.298 44.4821H181.972V55.8961H179.559Z" fill="#232E30"/>
<path fill-rule="evenodd" clip-rule="evenodd" d="M165.242 55.8961V46.6018H162.503L164.818 44.4821H170.917L168.601 46.6018H167.656V55.8961H165.242Z" fill="#232E30"/>
<path fill-rule="evenodd" clip-rule="evenodd" d="M152.1 55.8961V47.1888L155.1 44.4821H162.242L159.927 46.6018H154.513V49.1455H159.666V51.2326H154.513V53.8089H159.666V55.8961H152.1Z" fill="#232E30"/>
<path fill-rule="evenodd" clip-rule="evenodd" d="M137.294 55.8961V53.8089H147.534V47.4823L142.219 52.2436H138.697L147.273 44.4821H149.948V55.8961H137.294Z" fill="#232E30"/>
<path d="M128.652 49.1455H121.282V51.2326H128.652V49.1455Z" fill="#232E30"/>
<path fill-rule="evenodd" clip-rule="evenodd" d="M105.074 55.8961V47.1888L108.074 44.4821H115.216L112.901 46.6018H107.487V49.1455H112.64V51.2326H107.487V53.8089H112.64V55.8961H105.074Z" fill="#232E30"/>
<path fill-rule="evenodd" clip-rule="evenodd" d="M97.5735 55.8961C95.9103 55.8961 94.6385 55.3743 93.6601 54.2655C92.747 53.2219 92.2578 51.8522 92.2578 50.1891C92.2578 48.4933 92.7144 47.1236 93.6601 46.1126C94.6385 45.0365 95.9103 44.4821 97.5735 44.4821C99.2693 44.4821 100.541 45.0038 101.519 46.08C102.433 47.091 102.922 48.4933 102.922 50.1891C102.922 51.8522 102.465 53.2545 101.519 54.2655C100.541 55.3743 99.2367 55.8961 97.5735 55.8961ZM97.5735 46.504C96.2038 46.504 94.6058 47.1562 94.6058 50.1891C94.6058 51.2 94.8015 52.0479 95.2255 52.6675C95.7472 53.4502 96.5299 53.8742 97.5735 53.8742C98.6171 53.8742 99.4323 53.4828 99.9541 52.6675C100.378 52.0479 100.574 51.2 100.574 50.1891C100.574 49.1781 100.345 48.3302 99.9215 47.678C99.3997 46.8953 98.6171 46.504 97.5735 46.504Z" fill="#232E30"/>
<path fill-rule="evenodd" clip-rule="evenodd" d="M87.7248 55.8961V51.2326H82.7353V55.8961H80.322V47.1888L82.7353 45.0365V49.1455H87.7248V44.4821H90.1381V55.8961H87.7248Z" fill="#232E30"/>
<path fill-rule="evenodd" clip-rule="evenodd" d="M72.104 55.896V53.8089H74.5172C75.2999 53.8089 75.7565 53.3197 75.7565 52.5371C75.7565 51.7544 75.2999 51.2652 74.5172 51.2652H72.104V49.1781H74.5172C75.2999 49.1781 75.7565 48.6889 75.7565 47.9062C75.7565 47.1235 75.2999 46.6344 74.5172 46.6344H70.506V55.9613H68.0928V47.254L71.093 44.5472H75.1368C76.05 44.5472 76.8 44.8734 77.3544 45.5256C77.9088 46.1452 78.1697 46.9279 78.1697 47.9062C78.1697 48.8193 77.7784 49.4716 76.9631 49.8955L76.05 50.3847L77.0283 50.6782C77.3544 50.776 77.6153 51.0043 77.8436 51.3956C78.0393 51.7544 78.1697 52.1457 78.1697 52.5697C78.1697 53.548 77.9088 54.3307 77.3544 54.9503C76.8 55.6351 76.0826 55.9613 75.1368 55.9613H72.104V55.896Z" fill="#232E30"/>
<path fill-rule="evenodd" clip-rule="evenodd" d="M63.5271 55.8961V54.2329H58.3419L60.6899 52.0805H63.5271V47.4823L54.7546 55.3743V52.1784L63.2662 44.4821H65.9404V55.8961H63.5271Z" fill="#232E30"/>
<path fill-rule="evenodd" clip-rule="evenodd" d="M50.2217 55.8961V47.4497L41.4492 55.3743V52.1784L49.9282 44.4821H52.6023V55.8961H50.2217Z" fill="#232E30"/>
<path fill-rule="evenodd" clip-rule="evenodd" d="M34.405 55.8961V47.1888L37.4053 44.4821H43.1449L40.8295 46.6018H36.8183V55.8961H34.405Z" fill="#232E30"/>
<path fill-rule="evenodd" clip-rule="evenodd" d="M256 28.3067H254.369L250.815 24.2629H250.326V28.3067H249.054V19.8929H250.326V23.2845H250.815L253.848 19.8929H255.38L251.793 23.7737L256 28.3067ZM246.543 23.5454C246.543 22.404 246.445 21.6539 246.249 21.3604C245.956 20.9691 245.271 20.7734 244.195 20.7734C243.118 20.7734 242.434 20.9365 242.14 21.2952C241.847 21.6213 241.716 22.3714 241.716 23.4802V24.6868C241.716 25.926 241.879 26.7087 242.238 27.0674C242.466 27.2957 242.923 27.3936 243.575 27.3936H244.162C244.912 27.3936 245.466 27.2957 245.825 27.0674C246.282 26.8065 246.477 26.3174 246.477 25.5673C246.477 25.339 246.477 25.0129 246.51 24.5564C246.543 24.0998 246.543 23.7737 246.543 23.5454ZM247.912 23.7737C247.912 25.4695 247.749 26.5783 247.423 27.1653C246.967 28.0132 245.956 28.4371 244.423 28.4371C242.662 28.4371 241.553 28.111 241.031 27.4262C240.673 26.9044 240.477 25.7304 240.477 23.8715C240.477 22.3714 240.705 21.3278 241.129 20.7408C241.618 20.056 242.597 19.7299 244.032 19.7299C245.597 19.7299 246.64 19.9908 247.162 20.5451C247.651 21.0995 247.912 22.1757 247.912 23.7737ZM237.933 23.7737C237.933 22.6975 237.835 21.98 237.64 21.5887C237.346 21.0669 236.661 20.806 235.683 20.806C234.411 20.806 233.661 21.1974 233.465 22.0127C233.368 22.404 233.302 23.2193 233.302 24.4585C233.302 25.4695 233.433 26.1543 233.694 26.5783C234.02 27.1 234.672 27.3609 235.618 27.3609C236.629 27.3609 237.281 27.1327 237.607 26.6435C237.835 26.2848 237.933 25.5999 237.933 24.5237V23.7737V23.7737ZM239.27 24.0346C239.27 25.5347 239.107 26.5783 238.781 27.1653C238.325 27.9806 237.411 28.4045 236.042 28.4045C234.672 28.4045 233.759 28.0458 233.302 27.2631V31.8939H232.063V19.8929H233.302V21.0017C233.824 20.219 234.705 19.8277 235.944 19.8277C237.346 19.8277 238.259 20.1864 238.748 20.9365C239.075 21.4909 239.27 22.5344 239.27 24.0346ZM229.65 25.8282C229.65 25.0781 229.389 24.6216 228.835 24.3933C228.541 24.2629 227.921 24.1976 227.008 24.1976C226.095 24.1976 225.508 24.3281 225.215 24.589C225.019 24.752 224.921 25.1108 224.921 25.5999C224.921 26.2848 225.052 26.7739 225.345 27.0022C225.639 27.2631 226.128 27.3609 226.845 27.3609C227.726 27.3609 228.345 27.2957 228.672 27.1653C229.324 27.0022 229.65 26.5457 229.65 25.8282ZM230.824 28.3067H229.617L229.682 27.4262C229.161 28.111 228.215 28.4371 226.845 28.4371C225.737 28.4371 224.921 28.2741 224.432 27.9806C223.845 27.5892 223.552 26.8392 223.552 25.763C223.552 24.752 223.845 24.0346 224.465 23.6758C224.921 23.3823 225.704 23.2193 226.813 23.2193C227.465 23.2193 227.954 23.2519 228.28 23.3171C228.802 23.4476 229.226 23.6758 229.487 24.0672V23.0888C229.487 22.0779 229.324 21.4583 229.03 21.1648C228.737 20.9039 228.085 20.7408 227.041 20.7408C226.454 20.7408 225.997 20.806 225.704 20.9365C225.28 21.1322 225.052 21.4909 225.052 22.0127C225.052 22.0453 225.052 22.1431 225.052 22.3062H223.78C223.78 21.2626 224.106 20.5778 224.726 20.2516C225.182 19.9907 225.965 19.8603 227.106 19.8603C228.378 19.8603 229.291 20.0234 229.78 20.3495C230.433 20.7734 230.759 21.5887 230.759 22.8279V28.3067H230.824ZM222.378 28.2741H221.236V21.0017L218.268 28.2741H216.638L213.703 21.0017V28.2741H212.561V19.8603H214.42L217.453 27.3936L220.486 19.8603H222.378V28.2741V28.2741ZM210.148 23.5454C210.148 22.404 210.05 21.6539 209.855 21.3604C209.561 20.9691 208.876 20.7734 207.8 20.7734C206.724 20.7734 206.039 20.9365 205.746 21.2952C205.452 21.6213 205.322 22.3714 205.322 23.4802V24.6868C205.322 25.926 205.485 26.7087 205.844 27.0674C206.072 27.2957 206.528 27.3936 207.181 27.3936H207.768C208.518 27.3936 209.072 27.2957 209.431 27.0674C209.887 26.8065 210.083 26.3174 210.083 25.5673C210.083 25.339 210.083 25.0129 210.116 24.5564C210.148 24.0998 210.148 23.7737 210.148 23.5454ZM211.485 23.7737C211.485 25.4695 211.322 26.5783 210.996 27.1653C210.54 28.0132 209.529 28.4371 207.996 28.4371C206.235 28.4371 205.126 28.111 204.637 27.4262C204.278 26.9044 204.082 25.7304 204.082 23.8715C204.082 22.3714 204.311 21.3278 204.735 20.7408C205.224 20.056 206.202 19.7299 207.637 19.7299C209.203 19.7299 210.246 19.9908 210.735 20.5451C211.224 21.0995 211.485 22.1757 211.485 23.7737ZM202.876 28.3067H201.604V24.3281H197.071V28.3067H195.799V19.8929H197.071V23.2193H201.604V19.8929H202.876V28.3067ZM194.69 28.3067H193.549V27.1653C193.19 27.6544 192.766 27.9806 192.277 28.1762C191.918 28.3393 191.364 28.4045 190.679 28.4045C188.723 28.4045 187.777 27.4262 187.777 25.4695V19.8929H189.081V25.4695C189.081 26.2195 189.212 26.7087 189.473 26.9696C189.733 27.2305 190.223 27.3609 190.973 27.3609C191.951 27.3609 192.603 27.1653 192.929 26.8065C193.288 26.4478 193.451 25.7956 193.451 24.8172V19.8929H194.723V28.3067H194.69ZM178.972 24.1324V20.8713H176.134C175.645 20.8713 175.319 20.9039 175.124 20.9691C174.83 21.0995 174.634 21.3604 174.569 21.7192C174.569 21.7518 174.537 22.0127 174.504 22.4366C174.504 22.4366 174.504 22.4692 174.471 22.5018C174.471 22.5344 174.439 22.5671 174.439 22.5671C174.439 23.6106 175.026 24.165 176.2 24.165C176.265 24.165 176.363 24.165 176.526 24.1324C176.689 24.0998 176.787 24.0998 176.852 24.0998H178.972V24.1324ZM180.211 28.3067H178.972V25.2412H175.678C175.45 25.2412 175.254 25.3064 175.026 25.4695C174.83 25.6325 174.7 25.7956 174.7 26.0239V28.3067H173.428C173.46 27.3609 173.46 26.6435 173.46 26.0891C173.46 25.7956 173.526 25.4695 173.689 25.176C173.884 24.8172 174.113 24.6216 174.373 24.6216C173.623 24.0672 173.265 23.4802 173.265 22.8932C173.265 21.7844 173.428 21.0017 173.754 20.6104C174.145 20.1538 174.863 19.8929 175.939 19.8929H180.178V28.3067H180.211ZM172.188 28.2741H170.819L168.536 20.806L166.123 28.2741H164.851L167.59 19.8603H169.351L172.188 28.2741ZM162.47 24.0672C162.47 22.8932 162.372 22.1105 162.177 21.7518C161.883 21.1648 161.198 20.8713 160.122 20.8713C159.144 20.8713 158.524 21.0343 158.198 21.393C157.905 21.7518 157.742 22.404 157.742 23.3823V24.4585C157.742 25.5347 157.872 26.2522 158.1 26.6435C158.394 27.1 159.046 27.3609 160.09 27.3609C161.557 27.3609 162.307 26.7413 162.372 25.5347C162.372 25.4369 162.372 25.2738 162.405 25.0129C162.405 24.5237 162.438 24.1976 162.47 24.0672ZM163.677 28.8611C163.677 30.1003 163.351 30.9482 162.699 31.4048C162.177 31.7961 161.264 31.9918 159.959 31.9918C158.753 31.9918 157.97 31.8287 157.513 31.5352C156.959 31.1439 156.665 30.3938 156.665 29.2524H157.872C157.872 29.9372 158.035 30.4264 158.329 30.6547C158.59 30.883 159.079 30.9808 159.829 30.9808C160.742 30.9808 161.361 30.883 161.688 30.6873C162.177 30.3938 162.405 29.8068 162.405 28.9263V27.2305C162.046 27.9806 161.101 28.3719 159.666 28.3719C158.394 28.3719 157.513 28.0132 157.024 27.2957C156.6 26.7087 156.405 25.763 156.405 24.4585C156.405 22.8606 156.568 21.7518 156.894 21.1322C157.383 20.2516 158.361 19.7951 159.796 19.7951C161.068 19.7951 161.948 20.1864 162.47 20.9691L162.405 19.8603H163.644V28.8611H163.677Z" fill="#232E30"/>
<path fill-rule="evenodd" clip-rule="evenodd" d="M227.172 14.9361H226.03V13.8273C225.671 14.3165 225.247 14.6426 224.758 14.8383C224.4 15.0013 223.845 15.0665 223.16 15.0665C221.204 15.0665 220.258 14.0882 220.258 12.1315V6.48972H221.562V12.0663C221.562 12.8163 221.693 13.3055 221.954 13.5664C222.215 13.8273 222.704 13.9577 223.454 13.9577C224.432 13.9577 225.084 13.7621 225.41 13.4033C225.769 13.0446 225.932 12.3924 225.932 11.414V6.48972H227.204V14.9361H227.172ZM219.084 14.9361H217.812V9.2943C217.812 8.57685 217.682 8.08768 217.388 7.82679C217.095 7.5659 216.605 7.43545 215.888 7.43545C214.649 7.43545 213.899 7.79418 213.605 8.51163C213.475 8.80513 213.442 9.22908 213.442 9.78348V14.9361H212.17V9.35953C212.17 8.60946 212.04 8.08768 211.779 7.82679C211.518 7.5659 210.996 7.43545 210.246 7.43545C209.366 7.43545 208.713 7.66373 208.322 8.1529C207.996 8.57685 207.833 9.22908 207.833 10.1096V14.9361H206.594V6.48972H207.833V7.76156C208.289 6.84844 209.203 6.39188 210.54 6.39188C212.04 6.39188 212.953 6.84844 213.246 7.76156C213.768 6.84844 214.714 6.39188 216.051 6.39188C217.127 6.39188 217.91 6.62016 218.366 7.07672C218.823 7.53328 219.084 8.28335 219.084 9.39214V14.9361ZM205.387 11.838C205.387 13.1098 205.094 13.9577 204.539 14.3817C204.05 14.773 203.137 14.9687 201.832 14.9687C200.169 14.9687 199.126 14.61 198.636 13.8599C198.31 13.3381 198.147 12.1641 198.147 10.4357C198.147 8.96819 198.376 7.92462 198.865 7.37023C199.387 6.75061 200.398 6.42449 201.832 6.42449C202.941 6.42449 203.724 6.58755 204.213 6.88106C204.865 7.27239 205.191 7.95723 205.191 8.96819V9.26169H203.952C203.952 8.51163 203.789 8.02246 203.496 7.79418C203.202 7.5659 202.68 7.43545 201.93 7.43545C201.311 7.43545 200.854 7.46806 200.528 7.5659C200.006 7.72895 199.713 8.02246 199.55 8.44641C199.419 8.80513 199.387 9.71825 199.387 11.1532C199.387 12.2293 199.484 12.9468 199.713 13.3055C200.006 13.7621 200.691 14.023 201.702 14.023C202.68 14.023 203.3 13.9251 203.561 13.6969C203.887 13.436 204.05 12.8163 204.05 11.9032H205.387V11.838ZM195.701 12.4576C195.701 11.7076 195.441 11.251 194.886 11.0227C194.593 10.8923 193.973 10.827 193.06 10.827C192.147 10.827 191.56 10.9575 191.266 11.2184C191.071 11.3814 190.973 11.7402 190.973 12.2293C190.973 12.9142 191.103 13.4033 191.397 13.6316C191.69 13.8925 192.179 13.9904 192.897 13.9904C193.777 13.9904 194.397 13.9251 194.723 13.7947C195.408 13.6316 195.701 13.1751 195.701 12.4576ZM196.908 14.9361H195.701L195.767 14.0556C195.245 14.7404 194.299 15.0665 192.929 15.0665C191.788 15.0665 191.005 14.9035 190.516 14.61C189.929 14.2186 189.636 13.4686 189.636 12.3924C189.636 11.3814 189.929 10.664 190.549 10.3053C191.005 10.0118 191.788 9.8487 192.897 9.8487C193.549 9.8487 194.038 9.88131 194.364 9.94653C194.886 10.077 195.31 10.3053 195.571 10.6966V9.71825C195.571 8.7073 195.408 8.08768 195.114 7.79418C194.821 7.53328 194.169 7.37023 193.125 7.37023C192.538 7.37023 192.082 7.43545 191.788 7.5659C191.364 7.76157 191.136 8.12029 191.136 8.64207C191.136 8.67469 191.136 8.77252 191.136 8.93558H189.864C189.864 7.89201 190.19 7.20717 190.81 6.88106C191.266 6.62016 192.049 6.48972 193.19 6.48972C194.462 6.48972 195.375 6.65277 195.864 6.97889C196.517 7.40284 196.843 8.21813 196.843 9.45736V14.9361H196.908ZM188.494 14.9361H187.222V11.8706C186.635 12.3924 185.69 12.6533 184.483 12.6533C182.526 12.6533 181.581 11.6749 181.581 9.71825V6.718H182.885V9.71825C182.885 10.4683 183.016 10.9575 183.276 11.2184C183.537 11.4793 184.027 11.6097 184.777 11.6097C185.755 11.6097 186.407 11.414 186.733 11.0553C187.092 10.6966 187.255 10.0444 187.255 9.06602V6.52233H188.527V14.9361H188.494ZM180.439 14.9361H179.167V9.45736C179.167 8.64207 179.037 8.05507 178.743 7.79418C178.483 7.50067 177.928 7.37023 177.08 7.37023C175.417 7.37023 174.602 8.18551 174.602 9.78348V14.9361H173.33V6.48972H174.471V7.59851C175.026 6.75061 176.004 6.32666 177.374 6.32666C178.483 6.32666 179.298 6.55494 179.754 7.0115C180.211 7.46806 180.439 8.25074 180.439 9.35953V14.9361ZM170.982 12.4576C170.982 11.7076 170.721 11.251 170.167 11.0227C169.873 10.8923 169.254 10.827 168.34 10.827C167.427 10.827 166.84 10.9575 166.547 11.2184C166.351 11.3814 166.253 11.7402 166.253 12.2293C166.253 12.9142 166.384 13.4033 166.677 13.6316C166.971 13.8925 167.46 13.9904 168.177 13.9904C169.058 13.9904 169.677 13.9251 170.004 13.7947C170.656 13.6316 170.982 13.1751 170.982 12.4576ZM172.189 14.9361H170.982L171.047 14.0556C170.525 14.7404 169.58 15.0665 168.21 15.0665C167.101 15.0665 166.286 14.9035 165.797 14.61C165.21 14.2186 164.916 13.4686 164.916 12.3924C164.916 11.3814 165.21 10.664 165.829 10.3053C166.286 10.0118 167.069 9.8487 168.177 9.8487C168.83 9.8487 169.319 9.88131 169.645 9.94653C170.167 10.077 170.591 10.3053 170.852 10.6966V9.71825C170.852 8.7073 170.688 8.08768 170.395 7.79418C170.101 7.53328 169.449 7.37023 168.406 7.37023C167.786 7.37023 167.362 7.43545 167.069 7.5659C166.645 7.76157 166.416 8.12029 166.416 8.64207C166.416 8.67469 166.416 8.77252 166.416 8.93558H165.145C165.145 7.89201 165.471 7.20717 166.09 6.88106C166.547 6.62016 167.329 6.48972 168.471 6.48972C169.743 6.48972 170.656 6.65277 171.145 6.97889C171.797 7.40284 172.123 8.21813 172.123 9.45736V14.9361H172.189ZM163.644 12.425C163.644 13.5664 163.318 14.2839 162.633 14.6426C162.177 14.8709 161.329 15.0013 160.09 15.0013C158.524 15.0013 157.481 14.7404 156.959 14.2512C156.633 13.9251 156.47 13.3055 156.47 12.4576C156.47 12.3598 156.47 12.2946 156.502 12.2293H157.742C157.742 13.0446 157.937 13.5338 158.329 13.7621C158.59 13.9251 159.177 13.9904 160.025 13.9904C160.905 13.9904 161.459 13.9251 161.72 13.7947C162.144 13.599 162.373 13.1425 162.373 12.425C162.373 11.8054 162.177 11.414 161.753 11.251C161.557 11.1858 161.068 11.1532 160.285 11.1532C160.253 11.1532 160.22 11.1532 160.155 11.1205C160.09 11.1205 160.057 11.0879 160.025 11.0879H158.263V9.91392H161.101C161.59 9.91392 161.949 9.81609 162.112 9.62042C162.275 9.42475 162.373 9.09863 162.373 8.57685C162.373 8.05507 162.177 7.69634 161.818 7.50067C161.557 7.37023 161.133 7.305 160.579 7.305H159.731C158.59 7.305 158.035 7.76156 158.035 8.64207H156.763C156.731 8.44641 156.731 8.34857 156.731 8.34857C156.731 7.46806 157.155 6.88106 157.97 6.58755C158.459 6.42449 159.242 6.32666 160.285 6.32666C162.209 6.32666 163.286 6.78322 163.514 7.66373C163.579 7.98985 163.644 8.38118 163.644 8.83774C163.644 9.88131 163.286 10.4357 162.568 10.5662C163.286 10.8597 163.644 11.4467 163.644 12.425Z" fill="#232E30"/>
<path fill-rule="evenodd" clip-rule="evenodd" d="M30.9809 9.06599L41.0904 0H8.70726C4.56561 0 1.10879 3.55465 0.195669 8.31592C-0.0652229 10.0443 -0.0326115 11.7075 0.195669 13.3707C0.913121 17.0232 3.09809 19.9582 5.9679 21.1322L18.9799 25.9587C19.5017 26.1544 19.9582 26.4153 20.1865 26.8066C20.3822 27.1001 20.5126 27.4915 20.5126 27.8828C20.5126 28.9264 19.6647 29.7743 18.6211 29.7743C12.425 29.709 6.19618 29.7743 0 29.7743V38.3511H23.4476C27.6545 38.3511 31.2092 34.666 32.0245 29.7743C32.318 28.1437 32.2527 26.611 32.0245 24.9804C31.307 21.3279 29.122 18.3929 26.2522 17.2189L13.9251 13.175C13.4685 13.0772 13.0772 12.8815 12.7511 12.6532C12.1315 12.3271 11.7401 11.7075 11.7401 10.9575C11.7401 9.91388 12.588 9.06599 13.6316 9.06599C19.4038 9.06599 25.2087 9.06599 30.9809 9.06599Z" fill="#E30613"/>
<path fill-rule="evenodd" clip-rule="evenodd" d="M45.0365 0V13.1098L59.6465 0H76.637L33.916 38.3185V9.97911L45.0365 0Z" fill="#E30613"/>
<path fill-rule="evenodd" clip-rule="evenodd" d="M74.4845 30.9157V26.8392H65.4512L68.7449 23.9042H74.4845V12.9794L55.896 29.6438V23.5455L73.8323 7.43542H79.1806V30.9157H74.4845Z" fill="#232E30"/>
<path fill-rule="evenodd" clip-rule="evenodd" d="M132.5 30.9157C126.728 30.9157 122.065 25.6652 122.065 19.1756C122.065 17.0232 122.586 14.9361 123.565 13.1098L124.38 11.6097H113.096V30.9157H108.205V11.5771H99.2366V25.6652C99.2366 28.5677 95.6819 30.9157 91.3446 30.9157C87.0073 30.9157 83.4526 28.5677 83.4526 25.6652V13.0772L88.3444 8.70727V24.5891C88.3444 25.9261 89.6488 27.0023 91.3446 27.0023C93.0404 27.0023 94.3449 25.9587 94.3449 24.5891V7.43542H132.533C138.305 7.43542 142.969 12.6859 142.969 19.1756C142.969 25.6326 138.273 30.9157 132.5 30.9157ZM132.5 11.7727C129.076 11.7727 126.304 15.0991 126.304 19.1756C126.304 23.252 129.076 26.5784 132.5 26.5784C135.924 26.5784 138.696 23.252 138.696 19.1756C138.696 15.0991 135.924 11.7727 132.5 11.7727Z" fill="#232E30"/>
<path fill-rule="evenodd" clip-rule="evenodd" d="M132.631 4.2069C140.099 4.2069 146.165 10.8922 146.165 19.1429C146.165 27.3936 140.099 34.079 132.631 34.079H50.5803V26.9045L37.8618 38.3185H133.576C143.164 38.3185 150.958 29.7091 150.958 19.1429C150.958 8.57683 143.229 0.0326302 133.674 -0.0325928H133.576C116.162 0.0326302 98.0626 -0.0325928 80.6481 -0.0325928L75.8868 4.17429H132.631V4.2069Z" fill="#232E30"/>
</g>
<defs>
<clipPath id="clip0_1_1051">
<rect width="256" height="55.896" fill="white"/>
</clipPath>
</defs>
</svg>
